<mxfile host="app.diagrams.net" modified="2024-04-24T02:24:13.338Z" agent="Mozilla/5.0 (Windows NT 10.0; Win64; x64) AppleWebKit/537.36 (KHTML, like Gecko) Chrome/123.0.0.0 Safari/537.36" etag="eguVcG-QY-S4uZxhVp06" version="24.2.1" type="github">
  <diagram name="Page-1" id="0783ab3e-0a74-02c8-0abd-f7b4e66b4bec">
    <mxGraphModel dx="1436" dy="780" grid="1" gridSize="10" guides="1" tooltips="1" connect="1" arrows="1" fold="1" page="1" pageScale="1" pageWidth="850" pageHeight="1100" background="none" math="0" shadow="0">
      <root>
        <mxCell id="0" />
        <mxCell id="1" parent="0" />
        <mxCell id="1c1d494c118603dd-1" value="Replace LAEL REX" style="swimlane;html=1;childLayout=stackLayout;startSize=20;rounded=0;shadow=0;comic=0;labelBackgroundColor=none;strokeWidth=1;fontFamily=Verdana;fontSize=12;align=center;" parent="1" vertex="1">
          <mxGeometry x="70" y="30" width="1222.4299999999998" height="1260" as="geometry" />
        </mxCell>
        <mxCell id="afBEJ1qmN9qO1VWpJjCL-51" value="" style="edgeStyle=orthogonalEdgeStyle;rounded=0;orthogonalLoop=1;jettySize=auto;html=1;entryX=0.5;entryY=1;entryDx=0;entryDy=0;exitX=0;exitY=0.5;exitDx=0;exitDy=0;" parent="1c1d494c118603dd-1" source="afBEJ1qmN9qO1VWpJjCL-49" target="afBEJ1qmN9qO1VWpJjCL-46" edge="1">
          <mxGeometry relative="1" as="geometry">
            <mxPoint x="324.75" y="360" as="sourcePoint" />
            <mxPoint x="172.5" y="357.5" as="targetPoint" />
          </mxGeometry>
        </mxCell>
        <mxCell id="afBEJ1qmN9qO1VWpJjCL-52" value="NO" style="edgeLabel;html=1;align=center;verticalAlign=middle;resizable=0;points=[];" parent="afBEJ1qmN9qO1VWpJjCL-51" vertex="1" connectable="0">
          <mxGeometry x="-0.15" y="-2" relative="1" as="geometry">
            <mxPoint x="77" y="-8" as="offset" />
          </mxGeometry>
        </mxCell>
        <mxCell id="1c1d494c118603dd-2" value="LAEL Exporter" style="swimlane;html=1;startSize=20;" parent="1c1d494c118603dd-1" vertex="1">
          <mxGeometry y="20" width="331.5" height="1240" as="geometry" />
        </mxCell>
        <mxCell id="afBEJ1qmN9qO1VWpJjCL-3" value="" style="ellipse;whiteSpace=wrap;html=1;rounded=0;shadow=0;comic=0;labelBackgroundColor=none;strokeWidth=1;fillColor=#000000;fontFamily=Verdana;fontSize=12;align=center;" parent="1c1d494c118603dd-2" vertex="1">
          <mxGeometry x="100" y="22" width="20" height="20" as="geometry" />
        </mxCell>
        <mxCell id="afBEJ1qmN9qO1VWpJjCL-2" style="edgeStyle=orthogonalEdgeStyle;rounded=0;html=1;labelBackgroundColor=none;startArrow=none;startFill=0;startSize=5;endArrow=classicThin;endFill=1;endSize=5;jettySize=auto;orthogonalLoop=1;strokeWidth=1;fontFamily=Verdana;fontSize=12" parent="1c1d494c118603dd-2" source="afBEJ1qmN9qO1VWpJjCL-3" edge="1">
          <mxGeometry relative="1" as="geometry">
            <mxPoint x="110" y="69" as="targetPoint" />
          </mxGeometry>
        </mxCell>
        <mxCell id="1c1d494c118603dd-35" style="edgeStyle=none;rounded=0;html=1;labelBackgroundColor=none;startArrow=none;startFill=0;startSize=5;endArrow=classicThin;endFill=1;endSize=5;jettySize=auto;orthogonalLoop=1;strokeWidth=1;fontFamily=Verdana;fontSize=12" parent="1c1d494c118603dd-2" edge="1">
          <mxGeometry relative="1" as="geometry">
            <mxPoint x="152.27272727272725" y="455" as="targetPoint" />
          </mxGeometry>
        </mxCell>
        <mxCell id="1c1d494c118603dd-46" style="edgeStyle=none;rounded=0;html=1;labelBackgroundColor=none;startArrow=none;startFill=0;startSize=5;endArrow=oval;endFill=0;endSize=5;jettySize=auto;orthogonalLoop=1;strokeWidth=1;fontFamily=Verdana;fontSize=12;dashed=1;" parent="1c1d494c118603dd-2" edge="1">
          <mxGeometry relative="1" as="geometry">
            <mxPoint x="130.625" y="370" as="targetPoint" />
          </mxGeometry>
        </mxCell>
        <mxCell id="1c1d494c118603dd-47" style="edgeStyle=none;rounded=0;html=1;dashed=1;labelBackgroundColor=none;startArrow=none;startFill=0;startSize=5;endArrow=oval;endFill=0;endSize=5;jettySize=auto;orthogonalLoop=1;strokeWidth=1;fontFamily=Verdana;fontSize=12" parent="1c1d494c118603dd-2" edge="1">
          <mxGeometry relative="1" as="geometry">
            <mxPoint x="115" y="415" as="sourcePoint" />
          </mxGeometry>
        </mxCell>
        <mxCell id="afBEJ1qmN9qO1VWpJjCL-32" value="Submit LAEL REX" style="rounded=1;whiteSpace=wrap;html=1;shadow=0;comic=0;labelBackgroundColor=none;strokeWidth=1;fontFamily=Verdana;fontSize=12;align=center;arcSize=50;" parent="1c1d494c118603dd-2" vertex="1">
          <mxGeometry x="24.5" y="178" width="170" height="34" as="geometry" />
        </mxCell>
        <mxCell id="afBEJ1qmN9qO1VWpJjCL-42" value="" style="endArrow=classic;html=1;rounded=0;entryX=0.5;entryY=0;entryDx=0;entryDy=0;" parent="1c1d494c118603dd-2" target="afBEJ1qmN9qO1VWpJjCL-123" edge="1">
          <mxGeometry width="50" height="50" relative="1" as="geometry">
            <mxPoint x="110" y="90" as="sourcePoint" />
            <mxPoint x="160" y="40" as="targetPoint" />
          </mxGeometry>
        </mxCell>
        <mxCell id="afBEJ1qmN9qO1VWpJjCL-58" style="edgeStyle=orthogonalEdgeStyle;rounded=0;orthogonalLoop=1;jettySize=auto;html=1;entryX=0.5;entryY=1;entryDx=0;entryDy=0;" parent="1c1d494c118603dd-2" source="afBEJ1qmN9qO1VWpJjCL-46" target="afBEJ1qmN9qO1VWpJjCL-32" edge="1">
          <mxGeometry relative="1" as="geometry" />
        </mxCell>
        <mxCell id="afBEJ1qmN9qO1VWpJjCL-46" value="&lt;span style=&quot;font-family: Helvetica;&quot;&gt;Fix validation issues&lt;/span&gt;" style="rounded=1;whiteSpace=wrap;html=1;shadow=0;comic=0;labelBackgroundColor=none;strokeWidth=1;fontFamily=Verdana;fontSize=12;align=center;arcSize=50;" parent="1c1d494c118603dd-2" vertex="1">
          <mxGeometry x="47.5" y="250" width="125" height="30" as="geometry" />
        </mxCell>
        <mxCell id="afBEJ1qmN9qO1VWpJjCL-124" style="edgeStyle=orthogonalEdgeStyle;rounded=0;orthogonalLoop=1;jettySize=auto;html=1;entryX=0.5;entryY=0;entryDx=0;entryDy=0;" parent="1c1d494c118603dd-2" source="afBEJ1qmN9qO1VWpJjCL-123" target="afBEJ1qmN9qO1VWpJjCL-32" edge="1">
          <mxGeometry relative="1" as="geometry" />
        </mxCell>
        <mxCell id="afBEJ1qmN9qO1VWpJjCL-123" value="Start LAEL REX replacement" style="rounded=1;whiteSpace=wrap;html=1;shadow=0;comic=0;labelBackgroundColor=none;strokeWidth=1;fontFamily=Verdana;fontSize=12;align=center;arcSize=50;" parent="1c1d494c118603dd-2" vertex="1">
          <mxGeometry x="27" y="120" width="165" height="34" as="geometry" />
        </mxCell>
        <mxCell id="ksc2y1VciKkBosU3h8Wx-2" value="Open LAEL REX in COMP" style="rounded=1;whiteSpace=wrap;html=1;shadow=0;comic=0;labelBackgroundColor=none;strokeWidth=1;fontFamily=Verdana;fontSize=12;align=center;arcSize=50;" vertex="1" parent="1c1d494c118603dd-2">
          <mxGeometry x="29.5" y="60" width="165" height="30" as="geometry" />
        </mxCell>
        <mxCell id="afBEJ1qmN9qO1VWpJjCL-138" value="" style="edgeStyle=orthogonalEdgeStyle;rounded=0;orthogonalLoop=1;jettySize=auto;html=1;entryX=1;entryY=0.5;entryDx=0;entryDy=0;" parent="1c1d494c118603dd-1" source="afBEJ1qmN9qO1VWpJjCL-135" target="ksc2y1VciKkBosU3h8Wx-15" edge="1">
          <mxGeometry relative="1" as="geometry">
            <mxPoint x="608.4299999999998" y="795" as="targetPoint" />
          </mxGeometry>
        </mxCell>
        <mxCell id="afBEJ1qmN9qO1VWpJjCL-140" value="REJECT" style="edgeLabel;html=1;align=center;verticalAlign=middle;resizable=0;points=[];" parent="afBEJ1qmN9qO1VWpJjCL-138" vertex="1" connectable="0">
          <mxGeometry x="-0.2519" y="1" relative="1" as="geometry">
            <mxPoint x="13" y="-11" as="offset" />
          </mxGeometry>
        </mxCell>
        <mxCell id="afBEJ1qmN9qO1VWpJjCL-141" style="edgeStyle=orthogonalEdgeStyle;rounded=0;orthogonalLoop=1;jettySize=auto;html=1;exitX=0.5;exitY=1;exitDx=0;exitDy=0;entryX=0.5;entryY=0;entryDx=0;entryDy=0;" parent="1c1d494c118603dd-1" source="afBEJ1qmN9qO1VWpJjCL-135" target="afBEJ1qmN9qO1VWpJjCL-143" edge="1">
          <mxGeometry relative="1" as="geometry">
            <mxPoint x="360" y="880" as="targetPoint" />
          </mxGeometry>
        </mxCell>
        <mxCell id="afBEJ1qmN9qO1VWpJjCL-142" value="APPROVE" style="edgeLabel;html=1;align=center;verticalAlign=middle;resizable=0;points=[];" parent="afBEJ1qmN9qO1VWpJjCL-141" vertex="1" connectable="0">
          <mxGeometry x="0.3058" y="2" relative="1" as="geometry">
            <mxPoint x="122" y="-17" as="offset" />
          </mxGeometry>
        </mxCell>
        <mxCell id="afBEJ1qmN9qO1VWpJjCL-39" value="" style="endArrow=classic;html=1;rounded=0;exitX=1;exitY=0.5;exitDx=0;exitDy=0;entryX=0;entryY=0.5;entryDx=0;entryDy=0;" parent="1c1d494c118603dd-1" source="afBEJ1qmN9qO1VWpJjCL-32" target="1c1d494c118603dd-5" edge="1">
          <mxGeometry width="50" height="50" relative="1" as="geometry">
            <mxPoint x="200" y="239.25" as="sourcePoint" />
            <mxPoint x="298.75" y="211.5" as="targetPoint" />
          </mxGeometry>
        </mxCell>
        <mxCell id="afBEJ1qmN9qO1VWpJjCL-171" style="edgeStyle=orthogonalEdgeStyle;rounded=0;orthogonalLoop=1;jettySize=auto;html=1;entryX=0.5;entryY=0;entryDx=0;entryDy=0;" parent="1c1d494c118603dd-1" source="afBEJ1qmN9qO1VWpJjCL-143" target="afBEJ1qmN9qO1VWpJjCL-161" edge="1">
          <mxGeometry relative="1" as="geometry" />
        </mxCell>
        <mxCell id="1c1d494c118603dd-3" value="NEXDOC" style="swimlane;html=1;startSize=20;" parent="1c1d494c118603dd-1" vertex="1">
          <mxGeometry x="331.5" y="20" width="378.37" height="1240" as="geometry" />
        </mxCell>
        <mxCell id="1c1d494c118603dd-5" value="Validate LAEL REX at COMP" style="rounded=1;whiteSpace=wrap;html=1;shadow=0;comic=0;labelBackgroundColor=none;strokeWidth=1;fontFamily=Verdana;fontSize=12;align=center;arcSize=50;" parent="1c1d494c118603dd-3" vertex="1">
          <mxGeometry x="65.75" y="170" width="158.5" height="50" as="geometry" />
        </mxCell>
        <mxCell id="afBEJ1qmN9qO1VWpJjCL-48" value="" style="endArrow=classic;html=1;rounded=0;entryX=0.5;entryY=0;entryDx=0;entryDy=0;exitX=0.5;exitY=1;exitDx=0;exitDy=0;" parent="1c1d494c118603dd-3" source="1c1d494c118603dd-5" target="afBEJ1qmN9qO1VWpJjCL-49" edge="1">
          <mxGeometry width="50" height="50" relative="1" as="geometry">
            <mxPoint x="110" y="304" as="sourcePoint" />
            <mxPoint x="102" y="334" as="targetPoint" />
          </mxGeometry>
        </mxCell>
        <mxCell id="ksc2y1VciKkBosU3h8Wx-18" value="" style="edgeStyle=orthogonalEdgeStyle;rounded=0;orthogonalLoop=1;jettySize=auto;html=1;" edge="1" parent="1c1d494c118603dd-3" source="afBEJ1qmN9qO1VWpJjCL-49" target="ksc2y1VciKkBosU3h8Wx-3">
          <mxGeometry relative="1" as="geometry" />
        </mxCell>
        <mxCell id="ksc2y1VciKkBosU3h8Wx-19" value="YES" style="edgeLabel;html=1;align=center;verticalAlign=middle;resizable=0;points=[];" vertex="1" connectable="0" parent="ksc2y1VciKkBosU3h8Wx-18">
          <mxGeometry x="-0.4476" y="2" relative="1" as="geometry">
            <mxPoint as="offset" />
          </mxGeometry>
        </mxCell>
        <mxCell id="afBEJ1qmN9qO1VWpJjCL-49" value="Validation Ok?" style="rhombus;whiteSpace=wrap;html=1;" parent="1c1d494c118603dd-3" vertex="1">
          <mxGeometry x="90" y="275" width="110" height="55" as="geometry" />
        </mxCell>
        <mxCell id="afBEJ1qmN9qO1VWpJjCL-72" value="" style="edgeStyle=orthogonalEdgeStyle;rounded=0;orthogonalLoop=1;jettySize=auto;html=1;entryX=0.5;entryY=0;entryDx=0;entryDy=0;exitX=1;exitY=0.5;exitDx=0;exitDy=0;" parent="1c1d494c118603dd-3" source="ksc2y1VciKkBosU3h8Wx-3" target="afBEJ1qmN9qO1VWpJjCL-132" edge="1">
          <mxGeometry relative="1" as="geometry">
            <mxPoint x="260.7550000000001" y="430" as="targetPoint" />
            <Array as="points">
              <mxPoint x="180" y="420" />
              <mxPoint x="213" y="420" />
            </Array>
          </mxGeometry>
        </mxCell>
        <mxCell id="afBEJ1qmN9qO1VWpJjCL-73" value="YES" style="edgeLabel;html=1;align=center;verticalAlign=middle;resizable=0;points=[];" parent="afBEJ1qmN9qO1VWpJjCL-72" vertex="1" connectable="0">
          <mxGeometry x="-0.4127" y="-5" relative="1" as="geometry">
            <mxPoint x="25" y="25" as="offset" />
          </mxGeometry>
        </mxCell>
        <mxCell id="afBEJ1qmN9qO1VWpJjCL-118" style="edgeStyle=none;rounded=0;html=1;dashed=1;labelBackgroundColor=none;startArrow=none;startFill=0;startSize=5;endArrow=oval;endFill=0;endSize=5;jettySize=auto;orthogonalLoop=1;strokeWidth=1;fontFamily=Verdana;fontSize=12" parent="1c1d494c118603dd-3" edge="1">
          <mxGeometry relative="1" as="geometry">
            <mxPoint x="28.5" y="300" as="sourcePoint" />
            <mxPoint x="30" y="280" as="targetPoint" />
          </mxGeometry>
        </mxCell>
        <mxCell id="afBEJ1qmN9qO1VWpJjCL-143" value="Create VET Review Task" style="rounded=1;whiteSpace=wrap;html=1;shadow=0;comic=0;labelBackgroundColor=none;strokeWidth=1;fontFamily=Verdana;fontSize=12;align=center;arcSize=50;" parent="1c1d494c118603dd-3" vertex="1">
          <mxGeometry x="162.38" y="730" width="182.5" height="30" as="geometry" />
        </mxCell>
        <mxCell id="afBEJ1qmN9qO1VWpJjCL-117" value="Display validation error" style="shape=note;whiteSpace=wrap;html=1;rounded=0;shadow=0;comic=0;labelBackgroundColor=none;strokeWidth=1;fontFamily=Verdana;fontSize=12;align=center;size=20;" parent="1c1d494c118603dd-3" vertex="1">
          <mxGeometry x="-20.25" y="230" width="95" height="45" as="geometry" />
        </mxCell>
        <mxCell id="afBEJ1qmN9qO1VWpJjCL-182" value="REX replaced" style="rounded=1;whiteSpace=wrap;html=1;shadow=0;comic=0;labelBackgroundColor=none;strokeWidth=1;fontFamily=Verdana;fontSize=12;align=center;arcSize=50;" parent="1c1d494c118603dd-3" vertex="1">
          <mxGeometry x="38.5" y="1000" width="228.37" height="21" as="geometry" />
        </mxCell>
        <mxCell id="afBEJ1qmN9qO1VWpJjCL-186" value="" style="edgeStyle=orthogonalEdgeStyle;rounded=0;orthogonalLoop=1;jettySize=auto;html=1;entryX=0.5;entryY=0;entryDx=0;entryDy=0;" parent="1c1d494c118603dd-3" source="afBEJ1qmN9qO1VWpJjCL-182" target="k0b7vKXvkXCQRF4-hNE2-14" edge="1">
          <mxGeometry relative="1" as="geometry">
            <mxPoint x="181.5" y="1020" as="sourcePoint" />
            <mxPoint x="181.70000000000005" y="1049" as="targetPoint" />
          </mxGeometry>
        </mxCell>
        <mxCell id="k0b7vKXvkXCQRF4-hNE2-16" style="edgeStyle=orthogonalEdgeStyle;rounded=0;orthogonalLoop=1;jettySize=auto;html=1;exitX=0.5;exitY=1;exitDx=0;exitDy=0;entryX=0.5;entryY=0;entryDx=0;entryDy=0;" parent="1c1d494c118603dd-3" source="k0b7vKXvkXCQRF4-hNE2-14" target="ksc2y1VciKkBosU3h8Wx-11" edge="1">
          <mxGeometry relative="1" as="geometry">
            <mxPoint x="176.5" y="1130" as="targetPoint" />
          </mxGeometry>
        </mxCell>
        <mxCell id="k0b7vKXvkXCQRF4-hNE2-14" value="Update ICS record" style="rounded=1;whiteSpace=wrap;html=1;shadow=0;comic=0;labelBackgroundColor=none;strokeWidth=1;fontFamily=Verdana;fontSize=12;align=center;arcSize=50;" parent="1c1d494c118603dd-3" vertex="1">
          <mxGeometry x="97.75" y="1070" width="110.75" height="30" as="geometry" />
        </mxCell>
        <mxCell id="ksc2y1VciKkBosU3h8Wx-14" style="edgeStyle=orthogonalEdgeStyle;rounded=0;orthogonalLoop=1;jettySize=auto;html=1;" edge="1" parent="1c1d494c118603dd-3" source="ksc2y1VciKkBosU3h8Wx-3">
          <mxGeometry relative="1" as="geometry">
            <mxPoint x="134.5" y="1000" as="targetPoint" />
            <Array as="points">
              <mxPoint x="135" y="992" />
            </Array>
          </mxGeometry>
        </mxCell>
        <mxCell id="ksc2y1VciKkBosU3h8Wx-17" value="NO" style="edgeLabel;html=1;align=center;verticalAlign=middle;resizable=0;points=[];" vertex="1" connectable="0" parent="ksc2y1VciKkBosU3h8Wx-14">
          <mxGeometry x="0.1279" y="5" relative="1" as="geometry">
            <mxPoint x="15" y="-291" as="offset" />
          </mxGeometry>
        </mxCell>
        <mxCell id="ksc2y1VciKkBosU3h8Wx-3" value="REVIEW&lt;div&gt;required ?&lt;/div&gt;" style="rhombus;whiteSpace=wrap;html=1;" vertex="1" parent="1c1d494c118603dd-3">
          <mxGeometry x="88.88" y="381" width="91.12" height="74" as="geometry" />
        </mxCell>
        <mxCell id="afBEJ1qmN9qO1VWpJjCL-132" value="Create LAEL Doc Review Task" style="whiteSpace=wrap;html=1;fontFamily=Verdana;rounded=1;shadow=0;comic=0;labelBackgroundColor=none;strokeWidth=1;arcSize=50;" parent="1c1d494c118603dd-3" vertex="1">
          <mxGeometry x="162.38" y="490" width="101.63" height="60" as="geometry" />
        </mxCell>
        <mxCell id="ksc2y1VciKkBosU3h8Wx-11" value="" style="ellipse;html=1;shape=endState;fillColor=#000000;strokeColor=#ff0000;" vertex="1" parent="1c1d494c118603dd-3">
          <mxGeometry x="137.69" y="1150" width="30" height="30" as="geometry" />
        </mxCell>
        <mxCell id="ksc2y1VciKkBosU3h8Wx-15" value="" style="ellipse;html=1;shape=endState;fillColor=#000000;strokeColor=#ff0000;" vertex="1" parent="1c1d494c118603dd-3">
          <mxGeometry x="202.76000000000005" y="630" width="30" height="30" as="geometry" />
        </mxCell>
        <mxCell id="afBEJ1qmN9qO1VWpJjCL-202" value="" style="ellipse;html=1;shape=endState;fillColor=#000000;strokeColor=#ff0000;" parent="1c1d494c118603dd-3" vertex="1">
          <mxGeometry x="198.19" y="835" width="30" height="30" as="geometry" />
        </mxCell>
        <mxCell id="afBEJ1qmN9qO1VWpJjCL-79" value="LAEL Spport Officer" style="swimlane;html=1;startSize=20;" parent="1c1d494c118603dd-1" vertex="1">
          <mxGeometry x="709.87" y="20" width="262.55999999999995" height="1240" as="geometry" />
        </mxCell>
        <mxCell id="afBEJ1qmN9qO1VWpJjCL-80" style="rounded=0;html=1;labelBackgroundColor=none;startArrow=none;startFill=0;startSize=5;endArrow=classicThin;endFill=1;endSize=5;jettySize=auto;orthogonalLoop=1;strokeWidth=1;fontFamily=Verdana;fontSize=12" parent="afBEJ1qmN9qO1VWpJjCL-79" edge="1">
          <mxGeometry relative="1" as="geometry">
            <mxPoint x="83.75" y="238" as="sourcePoint" />
          </mxGeometry>
        </mxCell>
        <mxCell id="afBEJ1qmN9qO1VWpJjCL-82" style="edgeStyle=none;rounded=0;html=1;labelBackgroundColor=none;startArrow=none;startFill=0;startSize=5;endArrow=classicThin;endFill=1;endSize=5;jettySize=auto;orthogonalLoop=1;strokeWidth=1;fontFamily=Verdana;fontSize=12" parent="afBEJ1qmN9qO1VWpJjCL-79" edge="1">
          <mxGeometry relative="1" as="geometry">
            <mxPoint x="85" y="356.1111111111111" as="sourcePoint" />
          </mxGeometry>
        </mxCell>
        <mxCell id="afBEJ1qmN9qO1VWpJjCL-84" style="edgeStyle=none;rounded=0;html=1;labelBackgroundColor=none;startArrow=none;startFill=0;startSize=5;endArrow=classicThin;endFill=1;endSize=5;jettySize=auto;orthogonalLoop=1;strokeWidth=1;fontFamily=Verdana;fontSize=12" parent="afBEJ1qmN9qO1VWpJjCL-79" edge="1">
          <mxGeometry relative="1" as="geometry">
            <mxPoint x="70.5645161290322" y="298" as="sourcePoint" />
          </mxGeometry>
        </mxCell>
        <mxCell id="afBEJ1qmN9qO1VWpJjCL-91" value="Doc Review Task" style="rounded=1;whiteSpace=wrap;html=1;shadow=0;comic=0;labelBackgroundColor=none;strokeWidth=1;fontFamily=Verdana;fontSize=12;align=center;arcSize=50;" parent="afBEJ1qmN9qO1VWpJjCL-79" vertex="1">
          <mxGeometry x="70.02000000000001" y="560" width="100" height="30" as="geometry" />
        </mxCell>
        <mxCell id="afBEJ1qmN9qO1VWpJjCL-93" style="edgeStyle=none;rounded=0;html=1;dashed=1;labelBackgroundColor=none;startArrow=none;startFill=0;startSize=5;endArrow=oval;endFill=0;endSize=5;jettySize=auto;orthogonalLoop=1;strokeWidth=1;fontFamily=Verdana;fontSize=12" parent="afBEJ1qmN9qO1VWpJjCL-79" edge="1">
          <mxGeometry relative="1" as="geometry">
            <mxPoint x="122.9545454545455" y="238" as="targetPoint" />
          </mxGeometry>
        </mxCell>
        <mxCell id="afBEJ1qmN9qO1VWpJjCL-94" style="edgeStyle=none;rounded=0;html=1;dashed=1;labelBackgroundColor=none;startArrow=none;startFill=0;startSize=5;endArrow=oval;endFill=0;endSize=5;jettySize=auto;orthogonalLoop=1;strokeWidth=1;fontFamily=Verdana;fontSize=12" parent="afBEJ1qmN9qO1VWpJjCL-79" edge="1">
          <mxGeometry relative="1" as="geometry">
            <mxPoint x="85" y="281.8135593220338" as="targetPoint" />
          </mxGeometry>
        </mxCell>
        <mxCell id="afBEJ1qmN9qO1VWpJjCL-96" style="edgeStyle=none;rounded=0;html=1;dashed=1;labelBackgroundColor=none;startArrow=none;startFill=0;startSize=5;endArrow=oval;endFill=0;endSize=5;jettySize=auto;orthogonalLoop=1;strokeWidth=1;fontFamily=Verdana;fontSize=12" parent="afBEJ1qmN9qO1VWpJjCL-79" edge="1">
          <mxGeometry relative="1" as="geometry">
            <mxPoint x="139.23076923076906" y="360" as="targetPoint" />
          </mxGeometry>
        </mxCell>
        <mxCell id="afBEJ1qmN9qO1VWpJjCL-97" style="edgeStyle=none;rounded=0;html=1;dashed=1;labelBackgroundColor=none;startArrow=none;startFill=0;startSize=5;endArrow=oval;endFill=0;endSize=5;jettySize=auto;orthogonalLoop=1;strokeWidth=1;fontFamily=Verdana;fontSize=12" parent="afBEJ1qmN9qO1VWpJjCL-79" edge="1">
          <mxGeometry relative="1" as="geometry">
            <mxPoint x="110" y="420.6923076923076" as="sourcePoint" />
          </mxGeometry>
        </mxCell>
        <mxCell id="afBEJ1qmN9qO1VWpJjCL-135" value="?" style="rhombus;whiteSpace=wrap;html=1;" parent="afBEJ1qmN9qO1VWpJjCL-79" vertex="1">
          <mxGeometry x="95.39" y="630" width="49.25" height="30" as="geometry" />
        </mxCell>
        <mxCell id="afBEJ1qmN9qO1VWpJjCL-136" value="" style="edgeStyle=none;rounded=0;html=1;labelBackgroundColor=none;startArrow=none;startFill=0;startSize=5;endArrow=classicThin;endFill=1;endSize=5;jettySize=auto;orthogonalLoop=1;strokeWidth=1;fontFamily=Verdana;fontSize=12" parent="afBEJ1qmN9qO1VWpJjCL-79" source="afBEJ1qmN9qO1VWpJjCL-91" target="afBEJ1qmN9qO1VWpJjCL-135" edge="1">
          <mxGeometry relative="1" as="geometry">
            <mxPoint x="741.5" y="830" as="sourcePoint" />
            <mxPoint x="741.5" y="920" as="targetPoint" />
          </mxGeometry>
        </mxCell>
        <mxCell id="afBEJ1qmN9qO1VWpJjCL-173" style="edgeStyle=orthogonalEdgeStyle;rounded=0;orthogonalLoop=1;jettySize=auto;html=1;entryX=1;entryY=0.5;entryDx=0;entryDy=0;" parent="1c1d494c118603dd-1" source="afBEJ1qmN9qO1VWpJjCL-162" target="afBEJ1qmN9qO1VWpJjCL-202" edge="1">
          <mxGeometry relative="1" as="geometry">
            <mxPoint x="584.4300000000003" y="950" as="targetPoint" />
          </mxGeometry>
        </mxCell>
        <mxCell id="afBEJ1qmN9qO1VWpJjCL-174" value="REJECT" style="edgeLabel;html=1;align=center;verticalAlign=middle;resizable=0;points=[];" parent="afBEJ1qmN9qO1VWpJjCL-173" vertex="1" connectable="0">
          <mxGeometry x="-0.7581" relative="1" as="geometry">
            <mxPoint x="-4" y="-10" as="offset" />
          </mxGeometry>
        </mxCell>
        <mxCell id="afBEJ1qmN9qO1VWpJjCL-181" value="" style="edgeStyle=orthogonalEdgeStyle;rounded=0;orthogonalLoop=1;jettySize=auto;html=1;exitX=0.5;exitY=1;exitDx=0;exitDy=0;" parent="1c1d494c118603dd-1" source="afBEJ1qmN9qO1VWpJjCL-162" edge="1">
          <mxGeometry relative="1" as="geometry">
            <mxPoint x="500" y="1020" as="targetPoint" />
            <Array as="points">
              <mxPoint x="1109" y="940" />
              <mxPoint x="500" y="940" />
            </Array>
            <mxPoint x="1018.7750000000001" y="880" as="sourcePoint" />
          </mxGeometry>
        </mxCell>
        <mxCell id="afBEJ1qmN9qO1VWpJjCL-184" value="APPROVE" style="edgeLabel;html=1;align=center;verticalAlign=middle;resizable=0;points=[];" parent="afBEJ1qmN9qO1VWpJjCL-181" vertex="1" connectable="0">
          <mxGeometry x="-0.3344" y="2" relative="1" as="geometry">
            <mxPoint x="100" y="-12" as="offset" />
          </mxGeometry>
        </mxCell>
        <mxCell id="afBEJ1qmN9qO1VWpJjCL-134" style="edgeStyle=orthogonalEdgeStyle;rounded=0;orthogonalLoop=1;jettySize=auto;html=1;entryX=0.5;entryY=0;entryDx=0;entryDy=0;" parent="1c1d494c118603dd-1" source="afBEJ1qmN9qO1VWpJjCL-132" target="afBEJ1qmN9qO1VWpJjCL-91" edge="1">
          <mxGeometry relative="1" as="geometry">
            <mxPoint x="702" y="780" as="targetPoint" />
          </mxGeometry>
        </mxCell>
        <mxCell id="afBEJ1qmN9qO1VWpJjCL-1" value="LAEL Veterinary Staff" style="swimlane;html=1;startSize=20;" parent="1c1d494c118603dd-1" vertex="1">
          <mxGeometry x="972.43" y="20" width="250" height="1240" as="geometry" />
        </mxCell>
        <mxCell id="afBEJ1qmN9qO1VWpJjCL-16" style="edgeStyle=none;rounded=0;html=1;labelBackgroundColor=none;startArrow=none;startFill=0;startSize=5;endArrow=classicThin;endFill=1;endSize=5;jettySize=auto;orthogonalLoop=1;strokeWidth=1;fontFamily=Verdana;fontSize=12;entryX=0.5;entryY=0;entryDx=0;entryDy=0;exitX=0.5;exitY=1;exitDx=0;exitDy=0;" parent="afBEJ1qmN9qO1VWpJjCL-1" target="afBEJ1qmN9qO1VWpJjCL-162" edge="1" source="afBEJ1qmN9qO1VWpJjCL-161">
          <mxGeometry relative="1" as="geometry">
            <mxPoint x="136.13" y="900" as="sourcePoint" />
            <mxPoint x="136.63" y="920" as="targetPoint" />
          </mxGeometry>
        </mxCell>
        <mxCell id="afBEJ1qmN9qO1VWpJjCL-19" style="edgeStyle=none;rounded=0;html=1;dashed=1;labelBackgroundColor=none;startArrow=none;startFill=0;startSize=5;endArrow=oval;endFill=0;endSize=5;jettySize=auto;orthogonalLoop=1;strokeWidth=1;fontFamily=Verdana;fontSize=12" parent="afBEJ1qmN9qO1VWpJjCL-1" edge="1">
          <mxGeometry relative="1" as="geometry">
            <mxPoint x="122.9545454545455" y="238" as="targetPoint" />
          </mxGeometry>
        </mxCell>
        <mxCell id="afBEJ1qmN9qO1VWpJjCL-20" style="edgeStyle=none;rounded=0;html=1;dashed=1;labelBackgroundColor=none;startArrow=none;startFill=0;startSize=5;endArrow=oval;endFill=0;endSize=5;jettySize=auto;orthogonalLoop=1;strokeWidth=1;fontFamily=Verdana;fontSize=12" parent="afBEJ1qmN9qO1VWpJjCL-1" edge="1">
          <mxGeometry relative="1" as="geometry">
            <mxPoint x="85" y="281.8135593220338" as="targetPoint" />
          </mxGeometry>
        </mxCell>
        <mxCell id="afBEJ1qmN9qO1VWpJjCL-23" style="edgeStyle=none;rounded=0;html=1;dashed=1;labelBackgroundColor=none;startArrow=none;startFill=0;startSize=5;endArrow=oval;endFill=0;endSize=5;jettySize=auto;orthogonalLoop=1;strokeWidth=1;fontFamily=Verdana;fontSize=12" parent="afBEJ1qmN9qO1VWpJjCL-1" edge="1">
          <mxGeometry relative="1" as="geometry">
            <mxPoint x="110" y="420.6923076923076" as="sourcePoint" />
          </mxGeometry>
        </mxCell>
        <mxCell id="afBEJ1qmN9qO1VWpJjCL-161" value="Vet Review Task" style="rounded=1;whiteSpace=wrap;html=1;shadow=0;comic=0;labelBackgroundColor=none;strokeWidth=1;fontFamily=Verdana;fontSize=12;align=center;arcSize=50;" parent="afBEJ1qmN9qO1VWpJjCL-1" vertex="1">
          <mxGeometry x="59.66" y="790" width="153.37" height="20" as="geometry" />
        </mxCell>
        <mxCell id="afBEJ1qmN9qO1VWpJjCL-162" value="?" style="rhombus;whiteSpace=wrap;html=1;" parent="afBEJ1qmN9qO1VWpJjCL-1" vertex="1">
          <mxGeometry x="112.69" y="840" width="47.31" height="20" as="geometry" />
        </mxCell>
      </root>
    </mxGraphModel>
  </diagram>
</mxfile>
